<?xml version="1.0" encoding="UTF-8" standalone="no"?><!DOCTYPE svg PUBLIC "-//W3C//DTD SVG 1.1//EN" "http://www.w3.org/Graphics/SVG/1.1/DTD/svg11.dtd"><svg width="100%" height="100%" viewBox="0 0 106 114" version="1.1" xmlns="http://www.w3.org/2000/svg" xmlns:xlink="http://www.w3.org/1999/xlink" xml:space="preserve" xmlns:serif="http://www.serif.com/" style="fill-rule:evenodd;clip-rule:evenodd;stroke-linejoin:round;stroke-miterlimit:2;"><path d="M53.672,106.106c-1.609,4.164 -2.793,6.695 -3.206,6.853c-0.798,0.306 -11.854,-1.316 -15.225,-2.233c-2.24,-0.611 -3.672,-1.204 -3.251,-1.347c0.164,-0.056 1.765,-0.432 3.568,-0.838c5.848,-1.319 14.769,-4.03 18.456,-5.609c0.476,-0.204 0.9,-0.351 0.932,-0.325c0.033,0.028 -0.538,1.596 -1.274,3.499Zm-13.951,-7.876c4.252,1.46 8.128,2.293 13.164,2.832l1.387,0.148l-3.746,1.353c-9.357,3.38 -16.945,5.753 -20.756,6.494c-1.071,0.207 -2.053,0.38 -2.161,0.38c-0.108,0 0.664,-1.05 1.706,-2.32c2.864,-3.488 5.963,-7.454 6.783,-8.682c0.398,-0.595 0.801,-1.09 0.888,-1.09c0.087,0 1.308,0.395 2.735,0.885Zm-9.555,4.497c-1.989,2.973 -3.673,5.484 -3.729,5.56c-0.148,0.202 -3.328,-0.546 -5.707,-1.342c-2.497,-0.836 -5.579,-2.397 -6.78,-3.434l-0.872,-0.754l1.963,-0.535c8.029,-2.184 18.646,-5.001 18.699,-4.959c0.03,0.024 -1.584,2.49 -3.574,5.464Zm-2.239,-10.447c0.991,0.711 2.347,1.609 3.052,2.022l1.269,0.743l-0.575,0.239c-0.316,0.131 -4.926,1.809 -10.259,3.736c-9.099,3.288 -9.7,3.477 -9.951,3.142c-0.149,-0.198 -0.25,-0.41 -0.228,-0.476c0.022,-0.066 2.48,-3.241 5.471,-7.066l5.432,-6.95l2.002,1.666c1.11,0.923 2.797,2.235 3.787,2.944Zm-8.631,-4.114c-0.89,1.594 -2.717,4.223 -6.202,8.921l-2.97,4.004l-0.892,-0.637c-1.246,-0.89 -3.23,-3.049 -4.058,-4.417c-0.889,-1.467 -1.499,-3.277 -1.574,-4.659l-0.057,-1.071l1.467,-0.147c1.987,-0.201 7.553,-1.355 11.518,-2.389c1.804,-0.471 3.302,-0.831 3.34,-0.804c0.038,0.028 -0.218,0.565 -0.572,1.199Zm39.719,-1.784c-0.058,0.417 -0.403,2.26 -0.773,4.123c-1.157,5.828 -2.567,9.813 -3.474,9.813c-1.238,0 -9.734,-2.062 -12.469,-3.026c-1.864,-0.657 -3.471,-1.41 -4.005,-1.876c-0.33,-0.288 -0.159,-0.392 2.28,-1.385c7.85,-3.2 16.902,-7.282 17.881,-8.065c0.58,-0.465 0.672,-0.396 0.56,0.416Zm-17.026,-6.442c-0.304,1.442 -1.934,6.105 -2.876,8.226c-0.819,1.844 -2.722,5.432 -3.059,5.769c-0.149,0.149 -3.528,-1.757 -5.134,-2.895c-1.804,-1.281 -5.742,-5.08 -5.628,-5.431c0.042,-0.131 2.436,-1.054 5.33,-2.055c6.086,-2.104 9.497,-3.367 10.487,-3.882c0.952,-0.494 1.035,-0.468 0.88,0.268Zm7.525,0.454c4.283,2.056 5.896,2.759 7.95,3.467l1.566,0.539l-0.991,0.502c-5.611,2.838 -15.528,6.889 -18.099,7.394c-0.575,0.113 -0.656,0.083 -0.545,-0.205c0.442,-1.149 6.358,-13.381 6.472,-13.381c0.076,0 1.725,0.761 3.647,1.684Zm-31.42,-4.717c0.269,2.24 0.965,4.978 1.82,7.156c0.35,0.893 0.602,1.659 0.558,1.699c-0.336,0.308 -14.193,4.123 -16.017,4.409l-0.872,0.138l0.134,-0.674c0.189,-0.954 1.526,-3.688 2.53,-5.175c1.242,-1.838 4.314,-4.915 6.336,-6.347c1.506,-1.066 5.146,-3.191 5.257,-3.069c0.02,0.022 0.133,0.852 0.254,1.863Zm43.426,-3.27c0.023,2.835 -1.166,9.68 -1.801,10.367c-0.264,0.287 -3.187,-0.794 -5.823,-2.153c-2.36,-1.216 -6.245,-3.626 -6.245,-3.873c0,-0.066 0.595,-0.369 1.328,-0.676c1.397,-0.586 7.91,-4.066 10.665,-5.699l1.586,-0.94l0.139,0.724c0.076,0.394 0.144,1.417 0.151,2.25Zm-30.779,-4.55c-0.054,0.137 -0.466,1.18 -0.919,2.329c-1.938,4.917 -5.714,11.597 -6.554,11.597c-0.653,0 -1.612,-3.885 -1.885,-7.632l-0.137,-1.883l4.609,-2.33c2.537,-1.282 4.694,-2.329 4.797,-2.329c0.106,0 0.145,0.109 0.089,0.248Zm5.163,-0.109c0.873,1.803 2.856,4.401 5.04,6.601c1.397,1.407 1.747,1.867 1.533,2.012c-0.976,0.662 -5.352,2.709 -8.108,3.792c-3.35,1.317 -7.702,2.823 -7.804,2.701c-0.036,-0.044 0.961,-1.864 2.216,-4.044c2.726,-4.738 6.183,-11.443 6.183,-11.994c0,-0.701 0.288,-0.416 0.94,0.932Zm10.081,-4.957c0.241,1.972 -0.049,5.928 -0.585,7.99c-0.629,2.419 -0.989,3.426 -1.258,3.517c-0.371,0.126 -2.672,-1.97 -4.076,-3.716c-1.42,-1.763 -3.28,-5.082 -3.001,-5.354c0.166,-0.162 8.385,-3.547 8.643,-3.56c0.076,-0.003 0.202,0.509 0.277,1.123Zm8.605,1.349c3.112,1.834 5.68,3.353 5.718,3.38c0.038,0.026 -0.366,0.369 -0.881,0.746c-0.992,0.726 -11.537,6.184 -11.677,6.044c-0.043,-0.044 0.099,-0.952 0.313,-2.003c0.432,-2.121 0.816,-8.443 0.634,-10.447c-0.065,-0.713 -0.038,-1.206 0.064,-1.15c0.099,0.055 2.716,1.595 5.829,3.43Zm6.333,-5.947c0.126,0.653 0.282,2.686 0.347,4.51l0.119,3.32l-0.773,-0.358c-2.657,-1.232 -10.126,-5.438 -9.853,-5.548c1.626,-0.655 9.7,-3.326 9.793,-3.24c0.077,0.069 0.242,0.662 0.367,1.316Zm-24.026,-2.121c-0.463,0.413 -2.944,2.577 -5.502,4.797c-2.557,2.22 -5.642,4.9 -6.839,5.943c-2.418,2.105 -2.418,2.105 0.666,-1.919c2.391,-3.119 3.636,-4.278 7.065,-6.578c1.666,-1.116 4.986,-2.987 5.313,-2.994c0.076,-0.002 -0.247,0.343 -0.703,0.751Zm5.211,0.059c0.446,0.872 0.906,3.315 0.666,3.54c-0.098,0.092 -2.755,1.349 -5.927,2.804c-3.172,1.454 -7.282,3.4 -9.169,4.341c-1.883,0.939 -3.308,1.602 -3.171,1.477c0.136,-0.126 2.21,-1.862 4.609,-3.859c4.639,-3.862 9.931,-8.473 10.896,-9.492l0.582,-0.615l0.575,0.545c0.319,0.303 0.737,0.863 0.939,1.259Zm-5.499,-6.136c0.991,0.506 1.923,1.174 1.923,1.378c0,0.317 -6.451,5.298 -6.625,5.115c-0.042,-0.044 0.538,-1.19 1.292,-2.557c0.755,-1.368 1.52,-2.9 1.706,-3.42c0.184,-0.515 0.458,-0.942 0.604,-0.942c0.147,0 0.644,0.193 1.1,0.426Zm20.208,-5.917c-0.102,0.131 -1.06,1.348 -2.139,2.716c-1.075,1.365 -3.663,4.679 -5.758,7.374l-3.806,4.897l-0.126,-0.833c-0.244,-1.606 -1.1,-4.74 -1.586,-5.808l-0.489,-1.071l2.419,-1.212c2.497,-1.252 7.71,-4.076 10.15,-5.499c1.526,-0.891 1.622,-0.932 1.335,-0.564Zm8.259,2.287c1.606,1.07 5.173,4.264 4.976,4.456c-0.055,0.053 -3.667,1.225 -8.029,2.604c-4.361,1.379 -9.222,2.941 -10.804,3.469c-1.585,0.531 -2.887,0.948 -2.904,0.932c-0.016,-0.016 1.09,-1.279 2.458,-2.805c3.571,-3.985 7.237,-8.245 8.543,-9.932l1.121,-1.447l1.468,0.793c0.801,0.433 2.239,1.308 3.171,1.93Zm-19.32,-6.212c-1.026,3.568 -3.117,8.173 -4.072,8.968c-0.219,0.182 -0.654,-0.073 -2.062,-1.207c-0.991,-0.798 -2,-1.587 -2.269,-1.774c-0.258,-0.179 -0.449,-0.374 -0.407,-0.416c0.733,-0.726 9.227,-7.578 9.266,-7.474c0.028,0.076 -0.177,0.932 -0.456,1.903Zm8.933,-0.337c1.209,0.649 2.138,1.249 2.087,1.348c-0.093,0.178 -10.764,6.024 -10.849,5.944c-0.022,-0.02 0.527,-1.771 1.229,-3.912c0.7,-2.141 1.375,-4.457 1.506,-5.174l0.238,-1.298l1.804,0.961c1,0.533 2.775,1.482 3.985,2.131Zm35.425,-5.473c6.324,4.413 10.622,7.983 12.176,10.112c0.391,0.535 0.678,0.998 0.64,1.031c-0.038,0.033 -2.071,0.256 -4.53,0.498c-9.813,0.965 -16.8,1.95 -20.498,2.889c-0.991,0.252 -1.817,0.445 -1.833,0.429c-0.017,-0.017 0.631,-0.823 1.458,-1.814c4.282,-5.135 8.144,-10.474 9.579,-13.242c0.38,-0.734 0.751,-1.329 0.827,-1.329c0.077,0 1.051,0.637 2.181,1.426Zm-5.733,0.438c-1.538,2.537 -4.067,6.156 -5.899,8.445c-1.873,2.339 -5.824,6.74 -6.051,6.74c-0.087,0 -0.659,-0.714 -1.271,-1.586c-2.253,-3.212 -4.862,-5.986 -7.154,-7.609c-0.218,-0.155 -0.352,-0.321 -0.298,-0.37c0.055,-0.049 3.806,-1.434 8.326,-3.074c9.159,-3.323 13.191,-4.67 13.441,-4.492c0.033,0.024 -0.457,0.895 -1.094,1.946Zm-44.699,-1.294c1.606,0.527 3.479,1.241 4.173,1.591c1.249,0.629 1.256,0.638 0.901,1.031c-0.643,0.714 -7.632,7.222 -7.829,7.292c-0.105,0.036 -0.182,-0.948 -0.185,-2.376c-0.006,-2.478 -0.289,-6.953 -0.502,-7.949c-0.16,-0.744 -0.027,-0.728 3.442,0.411Zm30.271,-7.299c7.037,2.018 14.474,4.748 14.035,5.155c-0.086,0.08 -1.011,0.389 -2.041,0.681c-5.313,1.506 -12.705,4.059 -16.157,5.579c-1.071,0.472 -2.003,0.82 -2.052,0.766c-0.049,-0.055 0.374,-1.606 0.94,-3.45c1.115,-3.627 2.4,-8.532 2.4,-9.158c0,-0.278 0.104,-0.367 0.348,-0.298c0.192,0.056 1.317,0.378 2.527,0.725Zm-4.956,1.545c-0.186,0.839 -0.6,2.27 -0.925,3.202c-0.714,2.042 -3.302,7.334 -3.654,7.472c-0.141,0.055 -1.358,-0.51 -2.686,-1.247c-1.329,-0.738 -3.264,-1.721 -4.273,-2.171l-1.843,-0.823l6.79,-4.351c5.629,-3.608 6.801,-4.287 6.858,-3.975c0.038,0.207 -0.082,1.061 -0.267,1.893Zm-10.11,-4.528c3.707,0.763 6.95,1.436 7.206,1.495c0.373,0.088 -0.516,0.647 -4.441,2.796c-2.696,1.476 -5.759,3.164 -6.799,3.746c-1.051,0.589 -1.911,1.043 -1.933,1.021c-0.022,-0.022 0.085,-0.575 0.238,-1.229c0.56,-2.399 0.208,-5.404 -0.912,-7.791c-0.325,-0.694 -0.595,-1.305 -0.595,-1.348c0,-0.162 0.674,-0.04 7.236,1.31Zm-8.642,-0.417c0.745,1.729 1.029,3.389 1.15,6.7c0.065,1.784 0.069,3.231 0.008,3.231c-0.059,0 -1.12,-0.366 -2.349,-0.81c-2.458,-0.89 -7.276,-2.479 -7.85,-2.59c-0.252,-0.049 0.912,-1.16 3.965,-3.786c2.379,-2.046 4.397,-3.717 4.49,-3.717c0.093,0 0.356,0.436 0.586,0.972Zm-8.417,-2.677c3.35,0.479 6.132,0.912 6.176,0.962c0.043,0.049 -1.983,1.624 -4.5,3.498c-2.518,1.875 -4.602,3.384 -4.629,3.351c-0.028,-0.033 -0.281,-0.813 -0.565,-1.745c-0.284,-0.928 -0.997,-2.865 -1.586,-4.311c-0.59,-1.448 -1.053,-2.627 -1.031,-2.627c0.022,0 2.785,0.393 6.135,0.872Zm-7.721,-0.833c0.158,0.159 2.086,6.36 2.002,6.443c-0.033,0.033 -0.946,-1.031 -2.042,-2.379c-1.096,-1.347 -2.749,-3.24 -3.697,-4.232l-1.714,-1.794l2.666,0.922c1.467,0.507 2.719,0.975 2.785,1.04Zm17.613,-2.716c0.599,1.428 1.063,2.591 1.041,2.608c-0.026,0.021 -8.108,-1.23 -8.821,-1.365c-0.154,-0.029 1.219,-0.963 3.062,-2.085c1.844,-1.121 3.407,-1.965 3.489,-1.883c0.082,0.082 0.631,1.298 1.229,2.725Zm-19.615,-3.647c1.512,1.764 2.682,3.243 2.616,3.306c-0.131,0.126 -4.44,-0.939 -7.077,-1.75c-2.299,-0.707 -2.576,-0.951 -1.965,-1.734c0.402,-0.516 3.366,-3 3.591,-3.009c0.055,-0.002 1.323,1.423 2.835,3.187Zm4.539,-2.911c6.146,1.288 10.632,2.098 11.617,2.098c0.962,0 0.853,0.085 -3.667,2.837c-3.489,2.124 -3.887,2.317 -4.768,2.317l-0.961,0l-2.585,-2.616c-3.131,-3.172 -5.246,-5.489 -5.246,-5.749c0,-0.107 0.06,-0.143 0.149,-0.089c0.081,0.049 2.547,0.592 5.461,1.202Zm10.657,-6.307c1.097,2.993 1.773,5.343 1.773,6.165l0,0.655l-0.932,-0.109c-5.035,-0.583 -13.08,-1.827 -14.788,-2.286c-0.436,-0.117 -0.695,-0.294 -0.614,-0.421c0.134,-0.208 1.843,-1.034 6.917,-3.339c4.739,-2.153 6.537,-2.948 6.681,-2.957c0.066,-0.004 0.497,1.023 0.963,2.292Zm-1.3,-3.461c-0.328,0.105 -2.101,0.683 -3.965,1.293c-9.991,3.269 -17.076,7.053 -18.831,10.058c-0.672,1.15 -0.796,2.082 -0.402,3.013c0.444,1.049 1.253,1.843 3.474,3.41c1.04,0.733 2.815,2.258 3.964,3.405c5.503,5.493 8.17,12.216 7.867,19.828c-0.341,8.564 -4.351,17.128 -12.03,25.692c-2.68,2.99 -5.431,5.485 -10.705,9.708c-4.401,3.524 -6.79,5.8 -8.416,8.015c-4.992,6.798 -3.656,12.855 3.956,17.923c6.72,4.474 18.555,8.191 32.511,10.214c4.679,0.678 9.971,1.11 11.24,0.92l0.892,-0.135l1.398,-2.518c7.078,-12.746 10.66,-24.771 11.086,-37.208c0.19,-5.551 -0.511,-12.122 -1.702,-15.959c-0.216,-0.693 -0.376,-1.282 -0.354,-1.298c0.022,-0.016 2.002,-0.615 4.401,-1.329c12.607,-3.758 24.809,-6.719 34.89,-8.469c1.963,-0.341 3.64,-0.69 3.727,-0.775c0.536,-0.527 -1.028,-2.977 -3.583,-5.613c-9.431,-9.729 -26.094,-17.138 -45.64,-20.292c-3.767,-0.608 -4.229,-0.828 -5.627,-2.684c-2.218,-2.945 -4.313,-7.969 -7.161,-17.167c-0.089,-0.289 -0.177,-0.292 -0.99,-0.032Z" style="fill:#c22525;fill-rule:nonzero;"/></svg>