<svg xmlns="http://www.w3.org/2000/svg" width="23.625" height="27" viewBox="0 0 23.625 27">
  <path id="Icon_awesome-book" data-name="Icon awesome-book" d="M23.625,18.984V1.266A1.263,1.263,0,0,0,22.359,0H5.063A5.064,5.064,0,0,0,0,5.063V21.938A5.064,5.064,0,0,0,5.063,27h17.3a1.263,1.263,0,0,0,1.266-1.266v-.844a1.275,1.275,0,0,0-.469-.986,11.76,11.76,0,0,1,0-3.939A1.257,1.257,0,0,0,23.625,18.984ZM6.75,7.066a.317.317,0,0,1,.316-.316h11.18a.317.317,0,0,1,.316.316V8.121a.317.317,0,0,1-.316.316H7.066a.317.317,0,0,1-.316-.316Zm0,3.375a.317.317,0,0,1,.316-.316h11.18a.317.317,0,0,1,.316.316V11.5a.317.317,0,0,1-.316.316H7.066A.317.317,0,0,1,6.75,11.5ZM20.113,23.625H5.063a1.688,1.688,0,0,1,0-3.375h15.05A18.985,18.985,0,0,0,20.113,23.625Z" fill="#d98324"/>
</svg>
