<svg xmlns="http://www.w3.org/2000/svg" width="23.535" height="24.82" viewBox="0 0 23.535 24.82">
  <path id="Icon_feather-github" data-name="Icon feather-github" d="M10.257,20.148C5.073,21.7,5.073,17.557,3,17.038m14.514,6.22V19.246a3.494,3.494,0,0,0-.975-2.706c3.255-.363,6.676-1.6,6.676-7.257A5.639,5.639,0,0,0,21.661,5.4a5.256,5.256,0,0,0-.094-3.909s-1.223-.363-4.054,1.534a13.871,13.871,0,0,0-7.257,0C7.427,1.125,6.2,1.488,6.2,1.488A5.256,5.256,0,0,0,6.11,5.4,5.64,5.64,0,0,0,4.555,9.315c0,5.619,3.421,6.853,6.676,7.257a3.494,3.494,0,0,0-.975,2.675v4.012" transform="translate(-1.181 0.062)" fill="#fff" stroke="#fff" stroke-linecap="round" stroke-linejoin="round" stroke-width="3"/>
</svg>
