<svg xmlns="http://www.w3.org/2000/svg" width="30.164" height="28.01" viewBox="0 0 30.164 28.01">
  <path id="Icon_awesome-gitlab" data-name="Icon awesome-gitlab" d="M6.2,1.675a.591.591,0,0,0-1.113,0l-3.328,10.3H9.531c-.006,0-3.334-10.3-3.334-10.3ZM.053,17.156a1.175,1.175,0,0,0,.418,1.3l14.6,10.839L1.749,11.972Zm9.473-5.184L15.08,29.291l5.555-17.319Zm20.583,5.184-1.7-5.184L15.08,29.291l14.6-10.839a1.178,1.178,0,0,0,.424-1.3ZM25.077,1.675a.591.591,0,0,0-1.113,0l-3.334,10.3h7.776Z" transform="translate(0.003 -1.281)" fill="#fff"/>
</svg>
