<svg xmlns="http://www.w3.org/2000/svg" width="24.677" height="24.677" viewBox="0 0 24.677 24.677">
  <path id="Icon_simple-instagram" data-name="Icon simple-instagram" d="M11.838,0C8.622,0,8.221.015,6.958.071a8.729,8.729,0,0,0-2.874.55,5.8,5.8,0,0,0-2.1,1.365,5.776,5.776,0,0,0-1.365,2.1,8.7,8.7,0,0,0-.55,2.874C.012,8.221,0,8.622,0,11.838s.015,3.618.071,4.88a8.735,8.735,0,0,0,.55,2.874,5.806,5.806,0,0,0,1.365,2.1,5.789,5.789,0,0,0,2.1,1.365,8.74,8.74,0,0,0,2.874.55c1.263.059,1.664.071,4.88.071s3.618-.015,4.88-.071a8.76,8.76,0,0,0,2.874-.55,6.05,6.05,0,0,0,3.463-3.463,8.735,8.735,0,0,0,.55-2.874c.059-1.263.071-1.664.071-4.88s-.015-3.618-.071-4.88a8.755,8.755,0,0,0-.55-2.874,5.81,5.81,0,0,0-1.365-2.1,5.768,5.768,0,0,0-2.1-1.365,8.709,8.709,0,0,0-2.874-.55C15.456.012,15.054,0,11.838,0Zm0,2.131c3.16,0,3.537.016,4.785.07a6.522,6.522,0,0,1,2.2.409,3.9,3.9,0,0,1,2.247,2.246,6.536,6.536,0,0,1,.407,2.2c.056,1.249.069,1.624.069,4.785s-.015,3.537-.073,4.785a6.662,6.662,0,0,1-.415,2.2,3.759,3.759,0,0,1-.887,1.363,3.693,3.693,0,0,1-1.361.884,6.584,6.584,0,0,1-2.2.407c-1.257.056-1.627.069-4.794.069s-3.538-.015-4.794-.073a6.713,6.713,0,0,1-2.206-.415,3.666,3.666,0,0,1-1.36-.887,3.6,3.6,0,0,1-.888-1.361,6.718,6.718,0,0,1-.414-2.2c-.044-1.243-.06-1.627-.06-4.779s.016-3.538.06-4.8a6.711,6.711,0,0,1,.414-2.2,3.509,3.509,0,0,1,.888-1.362,3.5,3.5,0,0,1,1.36-.886A6.552,6.552,0,0,1,7,2.161C8.258,2.116,8.628,2.1,11.794,2.1l.044.03Zm0,3.628a6.079,6.079,0,1,0,6.079,6.079A6.079,6.079,0,0,0,11.838,5.759Zm0,10.025a3.946,3.946,0,1,1,3.946-3.946A3.945,3.945,0,0,1,11.838,15.785ZM19.579,5.52A1.421,1.421,0,1,1,18.158,4.1,1.422,1.422,0,0,1,19.579,5.52Z" transform="translate(0.5 0.5)" fill="#fff" stroke="#fff" stroke-width="1"/>
</svg>
