<svg xmlns="http://www.w3.org/2000/svg" width="24.677" height="24.677" viewBox="0 0 24.677 24.677">
  <path id="Icon_awesome-linkedin" data-name="Icon awesome-linkedin" d="M21.986,2.25H1.686A1.7,1.7,0,0,0,0,3.957V24.22a1.7,1.7,0,0,0,1.686,1.707h20.3a1.7,1.7,0,0,0,1.691-1.707V3.957A1.7,1.7,0,0,0,21.986,2.25ZM7.156,22.544H3.647v-11.3H7.161v11.3ZM5.4,9.7A2.035,2.035,0,1,1,7.436,7.667,2.036,2.036,0,0,1,5.4,9.7ZM20.31,22.544H16.8v-5.5c0-1.311-.026-3-1.823-3-1.829,0-2.109,1.427-2.109,2.9v5.592H9.36v-11.3h3.367v1.543h.048A3.7,3.7,0,0,1,16.1,10.965c3.552,0,4.212,2.341,4.212,5.385Z" transform="translate(0.5 -1.75)" fill="#fff" stroke="#fff" stroke-width="1"/>
</svg>
