<svg xmlns="http://www.w3.org/2000/svg" width="26.275" height="26.275" viewBox="0 0 26.275 26.275">
  <path id="Icon_awesome-phone-alt" data-name="Icon awesome-phone-alt" d="M25.525,18.567,19.778,16.1a1.232,1.232,0,0,0-1.437.354L15.8,19.568A19.022,19.022,0,0,1,6.7,10.475l3.11-2.545a1.229,1.229,0,0,0,.354-1.437L7.7.745A1.24,1.24,0,0,0,6.292.031L.955,1.263A1.232,1.232,0,0,0,0,2.463,23.809,23.809,0,0,0,23.812,26.275a1.232,1.232,0,0,0,1.2-.955l1.232-5.337a1.247,1.247,0,0,0-.719-1.416Z" transform="translate(0 0)" fill="#d98324"/>
</svg>
