<svg xmlns="http://www.w3.org/2000/svg" width="30.541" height="24.432" viewBox="0 0 30.541 24.432">
  <path id="Icon_awesome-school" data-name="Icon awesome-school" d="M0,10.689v12.98a.763.763,0,0,0,.764.764H4.581V9.162H1.527A1.527,1.527,0,0,0,0,10.689ZM17.179,8.4H16.034V6.49a.382.382,0,0,0-.382-.382h-.764a.382.382,0,0,0-.382.382V9.544a.382.382,0,0,0,.382.382h2.291a.382.382,0,0,0,.382-.382V8.78A.382.382,0,0,0,17.179,8.4Zm6.573-3.052L16.117.256a1.528,1.528,0,0,0-1.694,0L6.788,5.347a1.527,1.527,0,0,0-.68,1.27V24.432h6.108V17.561a.763.763,0,0,1,.764-.764h4.581a.763.763,0,0,1,.764.764v6.872h6.108V6.617a1.527,1.527,0,0,0-.68-1.271Zm-8.482,6.87A3.818,3.818,0,1,1,19.088,8.4,3.818,3.818,0,0,1,15.27,12.216ZM29.014,9.162H25.96v15.27h3.818a.763.763,0,0,0,.764-.764V10.689A1.527,1.527,0,0,0,29.014,9.162Z" fill="#d98324"/>
</svg>
