<svg xmlns="http://www.w3.org/2000/svg" width="25.064" height="25.064" viewBox="0 0 25.064 25.064">
  <path id="Icon_metro-sun" data-name="Icon metro-sun" d="M17.995,10.6a6.748,6.748,0,1,0,6.748,6.748A6.756,6.756,0,0,0,17.995,10.6Zm0,11.568a4.82,4.82,0,1,1,4.82-4.82A4.82,4.82,0,0,1,17.995,22.172Zm0-13.5a.964.964,0,0,0,.964-.964V5.784a.964.964,0,1,0-1.928,0V7.712A.964.964,0,0,0,17.995,8.676Zm0,17.352a.964.964,0,0,0-.964.964v1.928a.964.964,0,0,0,1.928,0V26.992A.964.964,0,0,0,17.995,26.028Zm7.5-14.812,1.363-1.363A.964.964,0,0,0,25.493,8.49L24.129,9.854a.964.964,0,1,0,1.363,1.363Zm-15,12.271L9.134,24.851A.964.964,0,0,0,10.5,26.214l1.363-1.363A.964.964,0,0,0,10.5,23.488ZM9.319,17.352a.964.964,0,0,0-.964-.964H6.427a.964.964,0,1,0,0,1.928H8.355A.964.964,0,0,0,9.319,17.352Zm20.244-.964H27.635a.964.964,0,0,0,0,1.928h1.928a.964.964,0,0,0,0-1.928ZM10.5,11.217a.964.964,0,0,0,1.363-1.363L10.5,8.49A.964.964,0,1,0,9.133,9.854Zm15,12.27a.964.964,0,0,0-1.363,1.363l1.363,1.363a.964.964,0,0,0,1.363-1.363Z" transform="translate(-5.463 -4.82)" fill="#fff"/>
</svg>
