<svg xmlns="http://www.w3.org/2000/svg" width="30.816" height="24.84" viewBox="0 0 30.816 24.84">
  <path id="Icon_awesome-twitter" data-name="Icon awesome-twitter" d="M26.155,9.281c.019.259.019.518.019.777,0,7.9-6.012,17-17,17A16.884,16.884,0,0,1,0,24.375a12.36,12.36,0,0,0,1.443.074A11.966,11.966,0,0,0,8.86,21.9a5.985,5.985,0,0,1-5.586-4.143,7.534,7.534,0,0,0,1.128.092,6.319,6.319,0,0,0,1.572-.2,5.975,5.975,0,0,1-4.791-5.864V11.7a6.017,6.017,0,0,0,2.7.758,5.984,5.984,0,0,1-1.85-7.991,16.983,16.983,0,0,0,12.319,6.252,6.745,6.745,0,0,1-.148-1.369,5.98,5.98,0,0,1,10.34-4.088,11.763,11.763,0,0,0,3.792-1.443,5.959,5.959,0,0,1-2.627,3.293,11.977,11.977,0,0,0,3.441-.925,12.843,12.843,0,0,1-3,3.089Z" transform="translate(0.271 -2.718)" fill="#fff" stroke="#fff" stroke-width="1"/>
</svg>
