<?xml version="1.0" encoding="utf-8"?>
<svg width="39.56897px" height="38.25px" viewBox="0 0 39.56897 38.25" version="1.1" xmlns:xlink="http://www.w3.org/1999/xlink" xmlns="http://www.w3.org/2000/svg">
  <path d="M1.97845 0C0.888763 0 0 0.888794 0 1.97839L0 28.3578C0 29.4475 0.888763 30.3362 1.97845 30.3362L14.5086 30.3362L14.5086 31.6552L9.66812 31.6552C8.78452 31.6552 7.96017 31.9978 7.33417 32.6187L3.95691 36.0011C3.58078 36.3772 3.47 36.944 3.67352 37.4385C3.87704 37.9331 4.35361 38.25 4.88687 38.25L34.6821 38.25C35.2154 38.25 35.6919 37.9331 35.8954 37.4385C36.099 36.944 35.9882 36.3772 35.6121 36.0011L32.2348 32.6187C31.6088 31.9978 30.7845 31.6552 29.9008 31.6552L25.0604 31.6552L25.0604 30.3362L37.5905 30.3362C38.6802 30.3362 39.569 29.4475 39.569 28.3578L39.569 1.97839C39.569 0.888794 38.6802 0 37.5905 0L1.97845 0ZM1.97845 1.31897L37.5905 1.31897C37.9538 1.31897 38.25 1.61523 38.25 1.97839L38.25 28.3578C38.25 28.7209 37.9538 29.0172 37.5905 29.0172L1.97845 29.0172C1.61523 29.0172 1.31897 28.7209 1.31897 28.3578L1.31897 1.97839C1.31897 1.61523 1.61523 1.31897 1.97845 1.31897L1.97845 1.31897ZM4.61639 3.95691C4.25317 3.95691 3.95691 4.25061 3.95691 4.61633L3.95691 25.7198C3.95691 26.0857 4.25317 26.3793 4.61639 26.3793L34.9526 26.3793C35.3158 26.3793 35.6121 26.0857 35.6121 25.7198L35.6121 4.61633C35.6121 4.25061 35.3158 3.95691 34.9526 3.95691L4.61639 3.95691ZM5.27585 5.27588L34.2931 5.27588L34.2931 25.0603L5.27585 25.0603L5.27585 5.27588ZM14.5086 7.91382C14.3412 7.91382 14.1711 7.97827 14.0423 8.10706L8.76648 13.3829C8.50888 13.6405 8.50888 14.0579 8.76648 14.3154L14.0423 19.5913C14.1711 19.7201 14.3386 19.7845 14.5086 19.7845C14.6786 19.7845 14.8461 19.7201 14.9749 19.5913C15.2325 19.3337 15.2325 18.9164 14.9749 18.6587L10.1653 13.8491L14.9749 9.03955C15.2325 8.78198 15.2325 8.36462 14.9749 8.10706C14.8461 7.97827 14.6761 7.91382 14.5086 7.91382L14.5086 7.91382ZM25.0604 7.91382C24.8929 7.91382 24.7229 7.97827 24.5941 8.10706C24.3365 8.36462 24.3365 8.78198 24.5941 9.03955L29.4037 13.8491L24.5941 18.6587C24.3365 18.9164 24.3365 19.3337 24.5941 19.5913C24.7229 19.7201 24.8904 19.7845 25.0604 19.7845C25.2304 19.7845 25.3978 19.7201 25.5266 19.5913L30.8025 14.3154C31.0601 14.0579 31.0601 13.6405 30.8025 13.3829L25.5266 8.10706C25.3978 7.97827 25.2278 7.91382 25.0604 7.91382L25.0604 7.91382ZM6.59482 21.1034C6.2316 21.1034 5.93533 21.3971 5.93533 21.7628L5.93533 23.0818C5.93533 23.4476 6.2316 23.7413 6.59482 23.7413C6.95804 23.7413 7.2543 23.4476 7.2543 23.0818L7.2543 21.7628C7.2543 21.3971 6.95804 21.1034 6.59482 21.1034L6.59482 21.1034ZM9.89224 21.1034C9.52902 21.1034 9.23276 21.3971 9.23276 21.7628L9.23276 23.0818C9.23276 23.4476 9.52902 23.7413 9.89224 23.7413C10.2555 23.7413 10.5517 23.4476 10.5517 23.0818L10.5517 21.7628C10.5517 21.3971 10.2555 21.1034 9.89224 21.1034L9.89224 21.1034ZM13.1897 21.1034C12.8264 21.1034 12.5302 21.3971 12.5302 21.7628L12.5302 23.0818C12.5302 23.4476 12.8264 23.7413 13.1897 23.7413C13.5529 23.7413 13.8492 23.4476 13.8492 23.0818L13.8492 21.7628C13.8492 21.3971 13.5529 21.1034 13.1897 21.1034L13.1897 21.1034ZM16.4871 21.1034C16.1238 21.1034 15.8276 21.3971 15.8276 21.7628L15.8276 23.0818C15.8276 23.4476 16.1238 23.7413 16.4871 23.7413C16.8503 23.7413 17.1465 23.4476 17.1465 23.0818L17.1465 21.7628C17.1465 21.3971 16.8503 21.1034 16.4871 21.1034L16.4871 21.1034ZM19.7845 21.1034C19.4213 21.1034 19.125 21.3971 19.125 21.7628L19.125 23.0818C19.125 23.4476 19.4213 23.7413 19.7845 23.7413C20.1477 23.7413 20.444 23.4476 20.444 23.0818L20.444 21.7628C20.444 21.3971 20.1477 21.1034 19.7845 21.1034L19.7845 21.1034ZM23.0819 21.1034C22.7187 21.1034 22.4224 21.3971 22.4224 21.7628L22.4224 23.0818C22.4224 23.4476 22.7187 23.7413 23.0819 23.7413C23.4451 23.7413 23.7414 23.4476 23.7414 23.0818L23.7414 21.7628C23.7414 21.3971 23.4451 21.1034 23.0819 21.1034L23.0819 21.1034ZM26.3793 21.1034C26.0161 21.1034 25.7198 21.3971 25.7198 21.7628L25.7198 23.0818C25.7198 23.4476 26.0161 23.7413 26.3793 23.7413C26.7425 23.7413 27.0388 23.4476 27.0388 23.0818L27.0388 21.7628C27.0388 21.3971 26.7425 21.1034 26.3793 21.1034L26.3793 21.1034ZM29.6767 21.1034C29.3135 21.1034 29.0172 21.3971 29.0172 21.7628L29.0172 23.0818C29.0172 23.4476 29.3135 23.7413 29.6767 23.7413C30.0399 23.7413 30.3362 23.4476 30.3362 23.0818L30.3362 21.7628C30.3362 21.3971 30.0399 21.1034 29.6767 21.1034L29.6767 21.1034ZM32.9742 21.1034C32.6109 21.1034 32.3147 21.3971 32.3147 21.7628L32.3147 23.0818C32.3147 23.4476 32.6109 23.7413 32.9742 23.7413C33.3374 23.7413 33.6336 23.4476 33.6336 23.0818L33.6336 21.7628C33.6336 21.3971 33.3374 21.1034 32.9742 21.1034L32.9742 21.1034ZM15.8276 30.3362L23.7414 30.3362L23.7414 34.2931L15.8276 34.2931L15.8276 30.3362ZM9.66812 32.9741L14.5086 32.9741L14.5086 34.2931C14.5086 35.0195 15.1011 35.6121 15.8276 35.6121L23.7414 35.6121C24.4678 35.6121 25.0603 35.0195 25.0603 34.2931L25.0603 32.9741L29.9008 32.9741C30.4212 32.9741 30.9364 33.1853 31.2997 33.5537L34.6821 36.931L4.88687 36.931L8.26929 33.5537C8.63254 33.1853 9.14774 32.9741 9.66812 32.9741L9.66812 32.9741Z" id="Shape" fill="#2D4358" fill-rule="evenodd" stroke="none" />
</svg>